<?xml version="1.0" encoding="UTF-8" standalone="no"?><!DOCTYPE svg PUBLIC "-//W3C//DTD SVG 1.1//EN" "http://www.w3.org/Graphics/SVG/1.1/DTD/svg11.dtd"><svg width="100%" height="100%" viewBox="0 0 56 56" version="1.1" xmlns="http://www.w3.org/2000/svg" xmlns:xlink="http://www.w3.org/1999/xlink" xml:space="preserve" xmlns:serif="http://www.serif.com/" style="fill-rule:evenodd;clip-rule:evenodd;stroke-linejoin:round;stroke-miterlimit:1.41421;"><path d="M15.432,14.528c-0.287,-0.727 -0.497,-1.497 -0.619,-2.301c-0.884,-5.797 3.105,-11.221 8.902,-12.104c5.797,-0.884 11.22,3.105 12.104,8.902c0.176,1.153 0.159,2.291 -0.027,3.382l-1.409,-1.016c0.059,-0.698 0.037,-1.414 -0.073,-2.136c-0.757,-4.964 -5.401,-8.38 -10.365,-7.623c-4.964,0.756 -8.38,5.401 -7.623,10.365c0.087,0.576 0.228,1.132 0.415,1.663l-1.305,0.868Z" style="fill:url(#_Linear1);"/><path d="M41.933,16.858c0,0 0.617,-1.872 1.756,-2.045c5.797,-0.884 11.22,3.105 12.104,8.902c0.883,5.797 -3.105,11.22 -8.902,12.104c-1.483,0.226 -2.941,0.133 -4.305,-0.227l0.577,-1.429c1.114,0.269 2.296,0.33 3.498,0.147c4.964,-0.757 8.38,-5.401 7.623,-10.365c-0.757,-4.964 -5.401,-8.38 -10.365,-7.623c-0.695,0.105 -1.359,0.287 -1.986,0.536Z" style="fill:url(#_Linear2);"/><path d="M40.126,40.581c0.472,0.955 0.808,1.998 0.977,3.108c0.883,5.797 -3.105,11.22 -8.902,12.104c-5.797,0.883 -11.221,-3.105 -12.104,-8.902c-0.223,-1.458 1.318,-1.481 1.508,-0.23c0.757,4.964 5.402,8.38 10.366,7.623c4.964,-0.757 8.38,-5.401 7.623,-10.365c-0.068,-0.445 -0.167,-0.877 -0.294,-1.295l0.826,-2.043Z" style="fill:url(#_Linear3);"/><path d="M10.139,19.986l-0.95,1.63c-4.929,0.787 -8.311,5.413 -7.557,10.355c0.756,4.964 5.401,8.38 10.365,7.623c0.937,-0.143 1.82,-0.425 2.629,-0.821l0.893,1.259c-1.005,0.522 -2.111,0.891 -3.292,1.071c-5.797,0.883 -11.221,-3.105 -12.104,-8.902c-0.884,-5.797 3.105,-11.221 8.902,-12.104c0.373,-0.057 0.745,-0.094 1.114,-0.111Z" style="fill:url(#_Linear4);"/><path d="M16.894,22.184c-1.189,2.272 -1.69,4.928 -1.275,7.655c0.453,2.972 1.923,5.54 4.001,7.404l-6.638,9.026c-4.377,-3.577 -7.496,-8.723 -8.414,-14.746c-0.88,-5.777 0.412,-11.389 3.267,-16.001l9.059,6.662Zm28.93,21.277c-3.552,4.1 -8.523,7.005 -14.301,7.886c-5.532,0.843 -10.911,-0.306 -15.408,-2.911l6.698,-9.107c2.127,0.965 4.547,1.345 7.026,0.967c2.726,-0.415 5.112,-1.686 6.926,-3.497l9.059,6.662Zm-1.847,-32.909c3.827,3.516 6.527,8.308 7.37,13.84c0.881,5.778 -0.412,11.389 -3.266,16.002l-9.059,-6.663c1.188,-2.271 1.69,-4.928 1.274,-7.654c-0.378,-2.479 -1.462,-4.676 -3.017,-6.418l6.698,-9.107Zm-3.002,-2.345l-6.638,9.025c-2.398,-1.428 -5.287,-2.066 -8.26,-1.613c-2.727,0.416 -5.113,1.686 -6.927,3.498l-9.059,-6.663c3.553,-4.099 8.524,-7.005 14.301,-7.886c6.023,-0.918 11.865,0.526 16.583,3.639Z" style="fill:url(#_Linear5);"/><defs><linearGradient id="_Linear1" x1="0" y1="0" x2="1" y2="0" gradientUnits="userSpaceOnUse" gradientTransform="matrix(-18.2568,-49.8168,49.8168,-18.2568,37.3566,55.4001)"><stop offset="0" style="stop-color:#10abec;stop-opacity:1"/><stop offset="1" style="stop-color:#4de1e1;stop-opacity:1"/></linearGradient><linearGradient id="_Linear2" x1="0" y1="0" x2="1" y2="0" gradientUnits="userSpaceOnUse" gradientTransform="matrix(-18.2568,-49.8168,49.8168,-18.2568,37.3566,55.4001)"><stop offset="0" style="stop-color:#10abec;stop-opacity:1"/><stop offset="1" style="stop-color:#4de1e1;stop-opacity:1"/></linearGradient><linearGradient id="_Linear3" x1="0" y1="0" x2="1" y2="0" gradientUnits="userSpaceOnUse" gradientTransform="matrix(-18.2568,-49.8168,49.8168,-18.2568,37.3566,55.4001)"><stop offset="0" style="stop-color:#10abec;stop-opacity:1"/><stop offset="1" style="stop-color:#4de1e1;stop-opacity:1"/></linearGradient><linearGradient id="_Linear4" x1="0" y1="0" x2="1" y2="0" gradientUnits="userSpaceOnUse" gradientTransform="matrix(-18.2568,-49.8168,49.8168,-18.2568,37.3566,55.4001)"><stop offset="0" style="stop-color:#10abec;stop-opacity:1"/><stop offset="1" style="stop-color:#4de1e1;stop-opacity:1"/></linearGradient><linearGradient id="_Linear5" x1="0" y1="0" x2="1" y2="0" gradientUnits="userSpaceOnUse" gradientTransform="matrix(-18.2568,-49.8168,49.8168,-18.2568,37.3566,55.4001)"><stop offset="0" style="stop-color:#10abec;stop-opacity:1"/><stop offset="1" style="stop-color:#4de1e1;stop-opacity:1"/></linearGradient></defs></svg>