<?xml version="1.0" encoding="UTF-8" standalone="no"?><!DOCTYPE svg PUBLIC "-//W3C//DTD SVG 1.1//EN" "http://www.w3.org/Graphics/SVG/1.1/DTD/svg11.dtd"><svg width="100%" height="100%" viewBox="0 0 500 500" version="1.1" xmlns="http://www.w3.org/2000/svg" xmlns:xlink="http://www.w3.org/1999/xlink" xml:space="preserve" xmlns:serif="http://www.serif.com/" style="fill-rule:evenodd;clip-rule:evenodd;stroke-linejoin:round;stroke-miterlimit:1.41421;"><rect id="Artboard1" x="0" y="0" width="500" height="500" style="fill:none;"/><clipPath id="_clip1"><rect id="Artboard11" serif:id="Artboard1" x="0" y="0" width="500" height="500"/></clipPath><g clip-path="url(#_clip1)"><g id="Layer-1" serif:id="Layer 1"><g><path d="M466.097,197.246c-8.684,0.001 -17.363,-3.304 -23.974,-9.914l-106.86,-106.861c-4.406,-4.406 -11.576,-4.406 -15.982,0c-2.135,2.134 -3.311,4.972 -3.311,7.991c0,3.019 1.176,5.857 3.311,7.992l66.398,66.398c4.414,4.414 4.414,11.569 0,15.982c-4.413,4.414 -11.568,4.414 -15.981,0l-66.4,-66.399c-13.219,-13.218 -13.219,-34.727 0,-47.946c13.219,-13.219 34.729,-13.219 47.946,0l106.862,106.861c4.406,4.406 11.574,4.407 15.982,0c2.134,-2.135 3.31,-4.973 3.31,-7.991c0,-3.019 -1.176,-5.857 -3.31,-7.991l-24.9,-24.9c-4.414,-4.414 -4.414,-11.569 0,-15.983c4.413,-4.413 11.568,-4.413 15.981,0l24.901,24.901c6.404,6.403 9.93,14.917 9.93,23.973c0,9.056 -3.526,17.57 -9.93,23.973c-6.609,6.608 -15.292,9.913 -23.973,9.914" style="fill:#ffd34f;fill-rule:nonzero;"/><path d="M454.907,313.912c-8.682,0 -17.363,-3.305 -23.973,-9.913l-35.721,-35.722c-4.414,-4.413 -4.414,-11.568 0,-15.981c4.413,-4.414 11.569,-4.414 15.982,0l35.721,35.72c4.406,4.408 11.576,4.407 15.982,0c2.135,-2.133 3.311,-4.972 3.311,-7.991c0,-3.018 -1.176,-5.856 -3.311,-7.991l-60.151,-60.151c-4.414,-4.414 -4.414,-11.569 0,-15.982c4.413,-4.414 11.569,-4.414 15.981,0l60.153,60.152c13.218,13.218 13.218,34.726 0,47.946c-6.61,6.608 -15.292,9.913 -23.974,9.913" style="fill:#28a7de;fill-rule:nonzero;"/><path d="M306.226,174.61c-2.893,0 -5.784,-1.103 -7.991,-3.31l-72.105,-72.105c-4.406,-4.406 -11.576,-4.406 -15.982,0c-4.406,4.406 -4.406,11.576 0,15.982l33.545,33.545c4.413,4.414 4.413,11.569 0,15.982c-4.413,4.414 -11.569,4.414 -15.982,0l-33.545,-33.545c-13.219,-13.219 -13.219,-34.727 0,-47.946c13.219,-13.219 34.728,-13.219 47.946,0l72.105,72.105c4.414,4.414 4.414,11.568 0,15.982c-2.207,2.207 -5.098,3.31 -7.991,3.31" style="fill:#28a7de;fill-rule:nonzero;"/><path d="M406.046,392.909c-8.682,0 -17.363,-3.305 -23.973,-9.914l-32.592,-32.593c-4.414,-4.413 -4.414,-11.569 0,-15.982c4.413,-4.413 11.568,-4.413 15.981,0l32.593,32.593c2.135,2.134 4.973,3.31 7.991,3.31c3.019,0 5.856,-1.176 7.99,-3.31c4.407,-4.407 4.407,-11.577 0.001,-15.983l-33.905,-33.905c-4.414,-4.413 -4.414,-11.569 0,-15.982c4.413,-4.413 11.568,-4.413 15.981,0l33.907,33.906c13.218,13.218 13.218,34.726 0.001,47.946c-6.611,6.609 -15.292,9.914 -23.975,9.914" style="fill:#ffd34f;fill-rule:nonzero;"/><path d="M114.44,174.61c-2.892,0 -5.784,-1.103 -7.991,-3.31l-13.882,-13.882c-13.219,-13.219 -13.219,-34.728 0,-47.947c13.219,-13.219 34.728,-13.219 47.946,0l38.313,38.313c4.413,4.413 4.413,11.569 0,15.982c-4.413,4.414 -11.569,4.414 -15.982,0l-38.313,-38.313c-4.406,-4.406 -11.576,-4.406 -15.982,0c-4.407,4.407 -4.407,11.576 0,15.983l13.882,13.882c4.413,4.414 4.413,11.568 0,15.982c-2.206,2.207 -5.098,3.31 -7.991,3.31" style="fill:#ffd34f;fill-rule:nonzero;"/><path d="M319.516,434.252c-9.057,0 -17.57,-3.527 -23.974,-9.931l-40.511,-40.511c-4.414,-4.413 -4.414,-11.57 0,-15.983c4.413,-4.412 11.569,-4.412 15.981,0l40.513,40.512c2.135,2.135 4.972,3.31 7.991,3.31c3.018,0 5.856,-1.175 7.991,-3.31c4.406,-4.406 4.406,-11.576 0,-15.983l-8.548,-8.546c-4.413,-4.413 -4.413,-11.57 0,-15.983c4.413,-4.412 11.57,-4.412 15.983,0l8.547,8.548c13.218,13.219 13.218,34.727 0,47.946c-6.404,6.404 -14.917,9.931 -23.973,9.931" style="fill:#28a7de;fill-rule:nonzero;"/><path d="M111.849,299.875c-2.893,0 -5.785,-1.104 -7.991,-3.311l-90.288,-90.287c-13.218,-13.218 -13.218,-34.727 0,-47.945c13.219,-13.22 34.729,-13.219 47.947,0l58.323,58.322c4.413,4.414 4.413,11.569 0,15.982c-4.413,4.414 -11.569,4.414 -15.982,0l-58.323,-58.323c-4.407,-4.406 -11.576,-4.406 -15.983,0c-4.406,4.407 -4.406,11.576 0.001,15.982l90.287,90.288c4.413,4.413 4.413,11.568 0,15.981c-2.207,2.207 -5.099,3.311 -7.991,3.311" style="fill:#28a7de;fill-rule:nonzero;"/><path d="M195.315,437.892c-8.682,0 -17.364,-3.306 -23.973,-9.914l-88.344,-88.345c-4.414,-4.413 -4.414,-11.568 0,-15.981c4.412,-4.413 11.568,-4.413 15.982,0l88.344,88.344c4.406,4.405 11.576,4.405 15.982,0c4.406,-4.407 4.406,-11.576 0,-15.982l-12.26,-12.26c-4.413,-4.414 -4.413,-11.569 0.001,-15.982c4.414,-4.413 11.569,-4.413 15.982,0l12.26,12.26c13.218,13.218 13.218,34.727 -0.001,47.946c-6.609,6.608 -15.291,9.914 -23.973,9.914" style="fill:#ffd34f;fill-rule:nonzero;"/><path d="M72.942,388.825c-2.892,0 -5.785,-1.104 -7.991,-3.311l-55.037,-55.036c-13.219,-13.218 -13.219,-34.727 0,-47.946c13.219,-13.218 34.728,-13.218 47.946,0l9.241,9.241c4.414,4.413 4.414,11.57 0,15.982c-4.413,4.413 -11.569,4.413 -15.982,0l-9.24,-9.241c-4.407,-4.406 -11.577,-4.405 -15.983,0c-4.406,4.407 -4.406,11.576 0,15.982l55.037,55.037c4.413,4.413 4.413,11.568 0,15.981c-2.207,2.207 -5.099,3.311 -7.991,3.311" style="fill:#28a7de;fill-rule:nonzero;"/><path d="M140.855,448.758l13.527,13.526c3.938,3.939 12.705,13.626 8.161,26.655c0,0 8.333,-13.813 -6.335,-28.481c14.668,14.668 28.48,6.336 28.48,6.336c-13.028,4.543 -22.715,-4.223 -26.653,-8.162l-13.527,-13.526l-4.281,-0.628l0.628,4.28Z" style="fill:#28a7de;fill-rule:nonzero;"/><path d="M95.544,400.126c-4.563,4.74 -4.509,12.282 0.164,16.955c2.451,2.019 4.26,4.707 5.206,7.737l1.128,3.612c2.5,8.01 8.38,14.526 16.094,17.832c0,0 8.302,3.95 13.476,6.453c6.476,3.133 11.255,2.819 15.464,-1.389c4.208,-4.208 4.521,-8.987 1.388,-15.464c-2.503,-5.174 -6.453,-13.475 -6.453,-13.475c-3.305,-7.714 -9.821,-13.594 -17.832,-16.095l-3.611,-1.127c-3.03,-0.946 -5.719,-2.756 -7.737,-5.206c-4.673,-4.673 -12.215,-4.729 -16.955,-0.165c-0.057,0.055 -0.109,0.112 -0.165,0.168c-0.055,0.055 -0.113,0.107 -0.167,0.164" style="fill:#ffd34f;fill-rule:nonzero;"/><path d="M118.336,446.857c0,-3.344 2.71,-6.054 6.054,-6.054c3.343,0 6.053,2.71 6.053,6.054c0,3.344 -2.71,6.054 -6.053,6.054c-3.344,0 -6.054,-2.71 -6.054,-6.054" style="fill:#28a7de;fill-rule:nonzero;"/><path d="M136.554,428.64c0,-3.343 2.71,-6.054 6.054,-6.054c3.343,0 6.053,2.711 6.053,6.054c0,3.344 -2.71,6.054 -6.053,6.054c-3.344,0 -6.054,-2.71 -6.054,-6.054" style="fill:#28a7de;fill-rule:nonzero;"/><path d="M112.301,446.857l18.125,0l0,-10.34l-13.408,0c-2.605,0 -4.717,2.112 -4.717,4.718l0,5.622Z" style="fill:#ffd34f;fill-rule:nonzero;"/><path d="M142.607,416.568l0,18.125l-10.339,0l0,-13.408c0,-2.605 2.111,-4.717 4.716,-4.717l5.623,0Z" style="fill:#ffd34f;fill-rule:nonzero;"/><path d="M389.266,51.242l-13.527,-13.527c-3.938,-3.938 -12.705,-13.625 -8.161,-26.654c0,0 -8.333,13.812 6.334,28.481c-14.667,-14.669 -28.48,-6.336 -28.48,-6.336c13.029,-4.543 22.716,4.224 26.654,8.162l13.527,13.527l4.281,0.628l-0.628,-4.281Z" style="fill:#ffd34f;fill-rule:nonzero;"/><path d="M434.577,99.874c4.563,-4.74 4.509,-12.282 -0.164,-16.955c-2.451,-2.018 -4.261,-4.707 -5.206,-7.737l-1.128,-3.611c-2.5,-8.011 -8.381,-14.527 -16.094,-17.832c0,0 -8.303,-3.95 -13.476,-6.453c-6.477,-3.133 -11.255,-2.82 -15.464,1.388c-4.208,4.209 -4.522,8.988 -1.388,15.464c2.503,5.174 6.452,13.476 6.452,13.476c3.306,7.713 9.822,13.594 17.832,16.094l3.612,1.128c3.03,0.946 5.719,2.755 7.737,5.206c4.673,4.673 12.215,4.728 16.955,0.164c0.057,-0.054 0.109,-0.112 0.165,-0.167c0.055,-0.056 0.112,-0.108 0.167,-0.165" style="fill:#28a7de;fill-rule:nonzero;"/><path d="M411.785,53.143c0,3.343 -2.71,6.054 -6.054,6.054c-3.342,0 -6.053,-2.711 -6.053,-6.054c0,-3.343 2.711,-6.054 6.053,-6.054c3.344,0 6.054,2.711 6.054,6.054" style="fill:#ffd34f;fill-rule:nonzero;"/><path d="M393.567,71.36c0,3.343 -2.71,6.054 -6.054,6.054c-3.342,0 -6.053,-2.711 -6.053,-6.054c0,-3.344 2.711,-6.054 6.053,-6.054c3.344,0 6.054,2.71 6.054,6.054" style="fill:#ffd34f;fill-rule:nonzero;"/><path d="M417.82,53.143l-18.125,0l0,10.339l13.408,0c2.606,0 4.717,-2.111 4.717,-4.716l0,-5.623Z" style="fill:#28a7de;fill-rule:nonzero;"/><path d="M387.513,83.432l0,-18.125l10.34,0l0,13.408c0,2.605 -2.112,4.717 -4.717,4.717l-5.623,0Z" style="fill:#28a7de;fill-rule:nonzero;"/><path d="M156.996,215.157l7.029,0c3.515,0 6.045,-0.839 7.589,-2.516c1.544,-1.678 2.317,-4.021 2.317,-7.03c0,-1.331 -0.2,-2.542 -0.6,-3.634c-0.398,-1.092 -1.005,-2.03 -1.816,-2.816c-0.813,-0.785 -1.838,-1.391 -3.076,-1.817c-1.238,-0.426 -2.71,-0.64 -4.414,-0.64l-7.029,0l0,18.453Zm0,10.185l0,19.451l-13.5,0l0,-58.193l20.529,0c4.1,0 7.622,0.486 10.564,1.458c2.943,0.972 5.365,2.31 7.269,4.014c1.905,1.704 3.309,3.714 4.215,6.031c0.904,2.316 1.358,4.819 1.358,7.508c0,2.903 -0.467,5.566 -1.398,7.988c-0.933,2.424 -2.357,4.5 -4.274,6.231c-1.917,1.731 -4.347,3.082 -7.289,4.054c-2.943,0.972 -6.424,1.458 -10.445,1.458l-7.029,0Z" style="fill:#fff;fill-rule:nonzero;"/><path d="M214.266,255.536c-0.373,0.825 -0.826,1.432 -1.358,1.817c-0.533,0.386 -1.385,0.579 -2.556,0.579l-9.266,0l7.988,-16.774l-16.536,-37.784l10.944,0c0.958,0 1.704,0.214 2.237,0.639c0.532,0.426 0.904,0.933 1.118,1.518l6.79,17.853c0.639,1.652 1.158,3.302 1.558,4.953c0.266,-0.852 0.559,-1.691 0.878,-2.516c0.32,-0.826 0.626,-1.664 0.919,-2.516l6.151,-17.774c0.213,-0.612 0.632,-1.124 1.258,-1.538c0.625,-0.412 1.298,-0.619 2.017,-0.619l9.985,0l-22.127,52.162Z" style="fill:#fff;fill-rule:nonzero;"/><path d="M281.326,229.735c0.319,0 0.64,0.06 0.958,0.179c0.32,0.12 0.626,0.326 0.919,0.619l5.352,5.632c-2.343,3.062 -5.279,5.372 -8.806,6.93c-3.529,1.557 -7.703,2.336 -12.522,2.336c-4.421,0 -8.38,-0.752 -11.882,-2.257c-3.502,-1.503 -6.47,-3.581 -8.907,-6.23c-2.436,-2.649 -4.307,-5.792 -5.612,-9.426c-1.305,-3.635 -1.956,-7.582 -1.956,-11.842c0,-4.34 0.745,-8.328 2.236,-11.962c1.491,-3.635 3.575,-6.77 6.251,-9.406c2.676,-2.636 5.877,-4.687 9.606,-6.151c3.726,-1.464 7.842,-2.197 12.342,-2.197c2.182,0 4.239,0.193 6.169,0.579c1.931,0.386 3.735,0.919 5.413,1.598c1.677,0.679 3.221,1.492 4.632,2.436c1.411,0.946 2.663,1.991 3.755,3.136l-4.553,6.11c-0.293,0.374 -0.639,0.713 -1.039,1.019c-0.399,0.306 -0.959,0.459 -1.676,0.459c-0.481,0 -0.933,-0.106 -1.359,-0.319c-0.426,-0.213 -0.879,-0.473 -1.358,-0.779c-0.48,-0.306 -1.005,-0.639 -1.577,-0.999c-0.573,-0.359 -1.252,-0.692 -2.037,-0.998c-0.786,-0.306 -1.704,-0.566 -2.756,-0.779c-1.053,-0.213 -2.284,-0.319 -3.695,-0.319c-2.45,0 -4.686,0.433 -6.71,1.298c-2.024,0.865 -3.761,2.103 -5.212,3.714c-1.452,1.611 -2.582,3.561 -3.395,5.851c-0.812,2.29 -1.218,4.86 -1.218,7.709c0,2.982 0.406,5.631 1.218,7.948c0.813,2.316 1.917,4.267 3.315,5.851c1.398,1.585 3.029,2.789 4.892,3.615c1.864,0.825 3.86,1.238 5.992,1.238c1.224,0 2.342,-0.06 3.355,-0.18c1.011,-0.12 1.95,-0.326 2.815,-0.619c0.865,-0.293 1.692,-0.672 2.477,-1.138c0.785,-0.466 1.578,-1.045 2.376,-1.738c0.32,-0.266 0.666,-0.485 1.039,-0.659c0.373,-0.173 0.759,-0.259 1.158,-0.259" style="fill:#fff;fill-rule:nonzero;"/><path d="M311.721,236.245c2.849,0 4.945,-1.004 6.29,-3.015c1.345,-2.01 2.018,-5.066 2.018,-9.167c0,-4.1 -0.673,-7.149 -2.018,-9.146c-1.345,-1.997 -3.441,-2.996 -6.29,-2.996c-2.93,0 -5.072,0.999 -6.431,2.996c-1.357,1.997 -2.037,5.046 -2.037,9.146c0,4.101 0.68,7.157 2.037,9.167c1.359,2.011 3.501,3.015 6.431,3.015m0,-33.51c3.142,0 6.004,0.493 8.587,1.478c2.583,0.986 4.8,2.397 6.65,4.234c1.851,1.837 3.287,4.067 4.314,6.69c1.024,2.623 1.537,5.571 1.537,8.846c0,3.303 -0.513,6.278 -1.537,8.927c-1.027,2.65 -2.463,4.9 -4.314,6.75c-1.85,1.851 -4.067,3.275 -6.65,4.274c-2.583,0.999 -5.445,1.498 -8.587,1.498c-3.17,0 -6.052,-0.499 -8.647,-1.498c-2.596,-0.999 -4.833,-2.423 -6.709,-4.274c-1.878,-1.85 -3.331,-4.1 -4.355,-6.75c-1.025,-2.649 -1.537,-5.624 -1.537,-8.927c0,-3.275 0.512,-6.223 1.537,-8.846c1.024,-2.623 2.477,-4.853 4.355,-6.69c1.876,-1.837 4.113,-3.248 6.709,-4.234c2.595,-0.985 5.477,-1.478 8.647,-1.478" style="fill:#fff;fill-rule:nonzero;"/><path d="M338.161,244.793l0,-41.418l7.669,0c0.772,0 1.418,0.173 1.937,0.519c0.519,0.346 0.885,0.866 1.098,1.558l0.719,2.396c0.8,-0.745 1.624,-1.438 2.476,-2.077c0.853,-0.639 1.764,-1.178 2.737,-1.617c0.971,-0.44 2.022,-0.785 3.155,-1.039c1.132,-0.252 2.362,-0.379 3.694,-0.379c2.263,0 4.267,0.393 6.011,1.178c1.744,0.786 3.215,1.877 4.413,3.275c1.198,1.398 2.104,3.062 2.717,4.993c0.612,1.93 0.918,4.028 0.918,6.291l0,26.32l-12.381,0l0,-26.32c0,-2.024 -0.467,-3.601 -1.398,-4.734c-0.932,-1.131 -2.304,-1.697 -4.114,-1.697c-1.358,0 -2.636,0.293 -3.835,0.878c-1.198,0.587 -2.342,1.373 -3.434,2.357l0,29.516l-12.382,0Z" style="fill:#fff;fill-rule:nonzero;"/><path d="M164.424,303.448c2.104,0 3.881,-0.245 5.333,-0.738c1.45,-0.493 2.636,-1.165 3.554,-2.018c0.919,-0.851 1.584,-1.856 1.997,-3.015c0.413,-1.159 0.619,-2.403 0.619,-3.735c0,-2.715 -0.925,-4.851 -2.776,-6.41c-1.851,-1.558 -4.772,-2.337 -8.767,-2.337l-11.543,0l0,18.253l11.583,0Zm-11.583,-42.815l0,17.972l9.347,0c3.993,0 6.976,-0.771 8.946,-2.316c1.971,-1.544 2.956,-3.767 2.956,-6.67c0,-3.168 -0.926,-5.458 -2.776,-6.87c-1.851,-1.41 -4.746,-2.116 -8.687,-2.116l-9.786,0Zm9.786,-7.31c3.674,0 6.816,0.354 9.426,1.059c2.609,0.706 4.753,1.711 6.43,3.015c1.678,1.305 2.909,2.896 3.695,4.773c0.785,1.877 1.178,3.988 1.178,6.331c0,1.358 -0.206,2.67 -0.619,3.933c-0.413,1.266 -1.052,2.452 -1.917,3.555c-0.866,1.105 -1.951,2.098 -3.255,2.977c-1.305,0.878 -2.849,1.611 -4.634,2.196c8.149,1.731 12.222,6.057 12.222,12.98c0,2.451 -0.459,4.694 -1.377,6.73c-0.919,2.037 -2.251,3.795 -3.994,5.272c-1.745,1.478 -3.895,2.63 -6.451,3.455c-2.556,0.826 -5.471,1.239 -8.747,1.239l-21.088,0l0,-57.515l19.131,0Z" style="fill:#fff;fill-rule:nonzero;"/><path d="M214.471,293.024c-3.063,0.106 -5.646,0.353 -7.749,0.739c-2.104,0.386 -3.808,0.878 -5.112,1.477c-1.305,0.599 -2.243,1.312 -2.816,2.138c-0.573,0.825 -0.858,1.73 -0.858,2.715c0,0.958 0.153,1.778 0.459,2.456c0.305,0.679 0.732,1.239 1.278,1.678c0.546,0.44 1.185,0.759 1.917,0.958c0.732,0.2 1.538,0.3 2.417,0.3c2.236,0 4.16,-0.419 5.771,-1.258c1.61,-0.839 3.175,-2.057 4.693,-3.654l0,-7.549Zm-22.766,-17.254c4.606,-4.287 10.091,-6.431 16.455,-6.431c2.343,0 4.427,0.379 6.251,1.138c1.824,0.76 3.355,1.831 4.593,3.215c1.238,1.386 2.183,3.029 2.836,4.934c0.652,1.904 0.979,4.013 0.979,6.33l0,25.881l-3.835,0c-0.825,0 -1.451,-0.126 -1.877,-0.379c-0.426,-0.253 -0.786,-0.765 -1.078,-1.538l-0.839,-3.315c-1.039,0.933 -2.064,1.765 -3.076,2.496c-1.012,0.734 -2.057,1.352 -3.135,1.858c-1.078,0.505 -2.237,0.884 -3.475,1.137c-1.238,0.254 -2.603,0.38 -4.094,0.38c-1.651,0 -3.189,-0.226 -4.613,-0.679c-1.425,-0.453 -2.656,-1.138 -3.694,-2.057c-1.039,-0.918 -1.858,-2.057 -2.457,-3.415c-0.599,-1.358 -0.898,-2.955 -0.898,-4.792c0,-1.572 0.419,-3.102 1.258,-4.593c0.839,-1.491 2.222,-2.83 4.154,-4.015c1.93,-1.184 4.473,-2.162 7.628,-2.935c3.156,-0.772 7.05,-1.212 11.683,-1.319l0,-2.715c0,-2.929 -0.626,-5.113 -1.877,-6.55c-1.252,-1.439 -3.09,-2.157 -5.512,-2.157c-1.651,0 -3.035,0.207 -4.153,0.619c-1.12,0.414 -2.092,0.859 -2.917,1.338c-0.826,0.479 -1.557,0.925 -2.196,1.338c-0.639,0.413 -1.318,0.62 -2.037,0.62c-0.586,0 -1.086,-0.154 -1.498,-0.46c-0.414,-0.306 -0.753,-0.686 -1.019,-1.139l-1.557,-2.795Z" style="fill:#fff;fill-rule:nonzero;"/><rect x="227.973" y="251.726" width="8.587" height="59.112" style="fill:#fff;"/><path d="M250.024,251.726l0,34.27l1.837,0c0.585,0 1.065,-0.081 1.438,-0.24c0.373,-0.16 0.76,-0.493 1.158,-0.999l11.423,-13.06c0.4,-0.533 0.839,-0.933 1.318,-1.199c0.48,-0.265 1.092,-0.399 1.837,-0.399l7.788,0l-13.738,15.497c-0.8,1.038 -1.678,1.863 -2.637,2.477c0.533,0.373 0.998,0.792 1.399,1.257c0.398,0.466 0.785,0.993 1.158,1.578l14.658,19.93l-7.669,0c-0.692,0 -1.285,-0.113 -1.777,-0.34c-0.493,-0.225 -0.925,-0.645 -1.299,-1.257l-11.781,-15.977c-0.4,-0.612 -0.8,-1.005 -1.198,-1.178c-0.401,-0.172 -0.999,-0.259 -1.798,-0.259l-2.117,0l0,19.011l-8.587,0l0,-59.112l8.587,0Z" style="fill:#fff;fill-rule:nonzero;"/><path d="M302.746,293.024c-3.063,0.106 -5.646,0.353 -7.749,0.739c-2.104,0.386 -3.808,0.878 -5.111,1.477c-1.306,0.599 -2.244,1.312 -2.817,2.138c-0.573,0.825 -0.858,1.73 -0.858,2.715c0,0.958 0.152,1.778 0.459,2.456c0.305,0.679 0.732,1.239 1.277,1.678c0.546,0.44 1.186,0.759 1.918,0.958c0.733,0.2 1.537,0.3 2.416,0.3c2.237,0 4.16,-0.419 5.772,-1.258c1.611,-0.839 3.175,-2.057 4.693,-3.654l0,-7.549Zm-22.767,-17.254c4.607,-4.287 10.092,-6.431 16.456,-6.431c2.343,0 4.427,0.379 6.25,1.138c1.825,0.76 3.356,1.831 4.594,3.215c1.238,1.386 2.183,3.029 2.836,4.934c0.652,1.904 0.979,4.013 0.979,6.33l0,25.881l-3.835,0c-0.825,0 -1.451,-0.126 -1.877,-0.379c-0.426,-0.253 -0.786,-0.765 -1.078,-1.538l-0.839,-3.315c-1.039,0.933 -2.065,1.765 -3.076,2.496c-1.011,0.734 -2.057,1.352 -3.135,1.858c-1.078,0.505 -2.237,0.884 -3.475,1.137c-1.238,0.254 -2.603,0.38 -4.094,0.38c-1.651,0 -3.189,-0.226 -4.613,-0.679c-1.425,-0.453 -2.656,-1.138 -3.694,-2.057c-1.039,-0.918 -1.858,-2.057 -2.457,-3.415c-0.599,-1.358 -0.899,-2.955 -0.899,-4.792c0,-1.572 0.42,-3.102 1.259,-4.593c0.838,-1.491 2.223,-2.83 4.153,-4.015c1.93,-1.184 4.473,-2.162 7.629,-2.935c3.156,-0.772 7.049,-1.212 11.683,-1.319l0,-2.715c0,-2.929 -0.626,-5.113 -1.877,-6.55c-1.253,-1.439 -3.09,-2.157 -5.512,-2.157c-1.651,0 -3.036,0.207 -4.154,0.619c-1.118,0.414 -2.091,0.859 -2.916,1.338c-0.825,0.479 -1.558,0.925 -2.196,1.338c-0.639,0.413 -1.319,0.62 -2.037,0.62c-0.586,0 -1.085,-0.154 -1.498,-0.46c-0.414,-0.306 -0.753,-0.686 -1.019,-1.139l-1.558,-2.795Z" style="fill:#fff;fill-rule:nonzero;"/><path d="M324.118,275.49c0.879,-0.904 1.79,-1.724 2.736,-2.456c0.945,-0.732 1.951,-1.364 3.016,-1.897c1.063,-0.533 2.196,-0.945 3.394,-1.238c1.199,-0.294 2.502,-0.44 3.915,-0.44c2.236,0 4.2,0.373 5.89,1.119c1.691,0.746 3.115,1.797 4.274,3.154c1.159,1.359 2.03,2.989 2.617,4.894c0.585,1.904 0.878,4.001 0.878,6.29l0,25.922l-8.547,0l0,-25.922c0,-2.742 -0.633,-4.872 -1.898,-6.391c-1.264,-1.517 -3.188,-2.276 -5.77,-2.276c-1.918,0 -3.695,0.439 -5.333,1.318c-1.637,0.879 -3.175,2.077 -4.613,3.595l0,29.676l-8.587,0l0,-40.74l5.192,0c1.172,0 1.918,0.546 2.236,1.638l0.6,3.754Z" style="fill:#fff;fill-rule:nonzero;"/><path d="M146.431,333.847l0,7.548l4.688,0c0.838,0 1.556,-0.096 2.156,-0.287c0.6,-0.193 1.094,-0.462 1.483,-0.81c0.388,-0.347 0.673,-0.762 0.854,-1.24c0.182,-0.479 0.273,-1.006 0.273,-1.581c0,-1.119 -0.396,-2.004 -1.187,-2.654c-0.792,-0.652 -1.99,-0.976 -3.593,-0.976l-4.674,0Zm0,-2.088l3.872,0c0.827,0 1.543,-0.091 2.148,-0.272c0.605,-0.182 1.107,-0.434 1.505,-0.756c0.399,-0.322 0.693,-0.714 0.885,-1.172c0.191,-0.46 0.288,-0.961 0.288,-1.506c0,-1.27 -0.384,-2.203 -1.15,-2.798c-0.767,-0.595 -1.957,-0.892 -3.57,-0.892l-3.978,0l0,7.396Zm-2.935,11.965l0,-21.676l6.913,0c1.332,0 2.478,0.131 3.441,0.394c0.963,0.261 1.755,0.634 2.375,1.119c0.621,0.483 1.079,1.076 1.377,1.777c0.297,0.7 0.446,1.49 0.446,2.367c0,0.536 -0.083,1.049 -0.25,1.543c-0.166,0.495 -0.418,0.953 -0.756,1.376c-0.338,0.424 -0.761,0.802 -1.271,1.135c-0.509,0.333 -1.107,0.606 -1.792,0.817c1.583,0.312 2.778,0.882 3.585,1.709c0.806,0.828 1.21,1.916 1.21,3.268c0,0.917 -0.169,1.754 -0.507,2.511c-0.338,0.756 -0.832,1.406 -1.482,1.951c-0.65,0.544 -1.447,0.966 -2.391,1.263c-0.942,0.298 -2.019,0.446 -3.229,0.446l-7.669,0Z" style="fill:#fff;fill-rule:nonzero;"/><path d="M168.016,330.14c-1.301,0 -2.325,0.376 -3.071,1.128c-0.746,0.751 -1.21,1.792 -1.391,3.123l8.334,0c0,-0.625 -0.086,-1.197 -0.257,-1.717c-0.172,-0.519 -0.424,-0.968 -0.757,-1.346c-0.332,-0.377 -0.738,-0.67 -1.217,-0.876c-0.479,-0.208 -1.026,-0.312 -1.641,-0.312m-0.061,-1.98c0.917,0 1.765,0.153 2.541,0.46c0.777,0.308 1.448,0.751 2.013,1.332c0.564,0.58 1.006,1.295 1.323,2.147c0.318,0.853 0.476,1.823 0.476,2.912c0,0.424 -0.045,0.706 -0.136,0.848c-0.09,0.14 -0.262,0.211 -0.514,0.211l-10.195,0c0.02,0.968 0.151,1.81 0.393,2.526c0.242,0.717 0.575,1.314 0.998,1.793c0.424,0.48 0.928,0.837 1.513,1.074c0.585,0.238 1.24,0.355 1.966,0.355c0.676,0 1.258,-0.078 1.747,-0.235c0.49,-0.155 0.911,-0.325 1.264,-0.505c0.353,-0.182 0.647,-0.351 0.884,-0.507c0.237,-0.157 0.441,-0.235 0.613,-0.235c0.222,0 0.393,0.086 0.514,0.257l0.757,0.984c-0.333,0.403 -0.731,0.753 -1.195,1.05c-0.464,0.298 -0.961,0.543 -1.49,0.735c-0.53,0.191 -1.077,0.335 -1.641,0.43c-0.565,0.096 -1.125,0.144 -1.68,0.144c-1.058,0 -2.034,-0.179 -2.926,-0.537c-0.893,-0.358 -1.664,-0.882 -2.314,-1.573c-0.651,-0.691 -1.158,-1.545 -1.521,-2.564c-0.363,-1.018 -0.545,-2.188 -0.545,-3.51c0,-1.068 0.164,-2.067 0.492,-2.995c0.328,-0.928 0.799,-1.731 1.414,-2.412c0.615,-0.681 1.367,-1.215 2.254,-1.603c0.888,-0.388 1.886,-0.582 2.995,-0.582" style="fill:#fff;fill-rule:nonzero;"/><rect x="177.288" y="321.443" width="2.692" height="22.281" style="fill:#fff;"/><path d="M189.132,336.236c0.545,0 1.026,-0.075 1.444,-0.228c0.419,-0.15 0.77,-0.362 1.052,-0.634c0.282,-0.273 0.494,-0.598 0.636,-0.976c0.14,-0.378 0.211,-0.795 0.211,-1.248c0,-0.937 -0.285,-1.684 -0.854,-2.238c-0.571,-0.555 -1.4,-0.833 -2.489,-0.833c-1.079,0 -1.904,0.278 -2.473,0.833c-0.57,0.554 -0.855,1.301 -0.855,2.238c0,0.453 0.073,0.87 0.22,1.248c0.146,0.378 0.36,0.703 0.642,0.976c0.283,0.272 0.631,0.484 1.045,0.634c0.413,0.153 0.887,0.228 1.421,0.228m4.78,8.265c0,-0.391 -0.106,-0.704 -0.318,-0.941c-0.211,-0.236 -0.499,-0.419 -0.862,-0.548c-0.363,-0.129 -0.781,-0.223 -1.255,-0.285c-0.474,-0.061 -0.974,-0.093 -1.498,-0.093l-1.603,0c-0.545,0 -1.064,-0.068 -1.558,-0.204c-0.575,0.273 -1.042,0.607 -1.399,1c-0.359,0.394 -0.537,0.864 -0.537,1.41c0,0.342 0.088,0.663 0.264,0.961c0.177,0.297 0.446,0.555 0.81,0.773c0.363,0.217 0.819,0.389 1.369,0.515c0.549,0.126 1.197,0.189 1.943,0.189c0.726,0 1.377,-0.066 1.951,-0.2c0.576,-0.134 1.061,-0.324 1.46,-0.571c0.398,-0.247 0.704,-0.541 0.915,-0.879c0.212,-0.34 0.318,-0.715 0.318,-1.127m-4.78,-16.358c0.666,0 1.289,0.073 1.869,0.22c0.579,0.146 1.106,0.36 1.58,0.643l4.159,0l0,0.999c0,0.332 -0.211,0.544 -0.634,0.634l-1.74,0.243c0.343,0.655 0.514,1.386 0.514,2.193c0,0.746 -0.144,1.424 -0.431,2.034c-0.288,0.61 -0.686,1.132 -1.195,1.565c-0.51,0.434 -1.114,0.767 -1.815,0.999c-0.701,0.232 -1.47,0.347 -2.307,0.347c-0.716,0 -1.392,-0.085 -2.027,-0.256c-0.323,0.208 -0.567,0.433 -0.733,0.672c-0.167,0.239 -0.25,0.475 -0.25,0.703c0,0.376 0.146,0.66 0.439,0.854c0.292,0.192 0.68,0.331 1.164,0.414c0.485,0.083 1.034,0.125 1.649,0.125l1.883,0c0.641,0 1.269,0.056 1.884,0.169c0.615,0.112 1.164,0.296 1.648,0.551c0.485,0.255 0.873,0.607 1.165,1.056c0.293,0.449 0.439,1.032 0.439,1.745c0,0.664 -0.164,1.307 -0.491,1.93c-0.328,0.622 -0.8,1.176 -1.415,1.662c-0.615,0.485 -1.367,0.872 -2.254,1.163c-0.887,0.29 -1.891,0.437 -3.01,0.437c-1.12,0 -2.1,-0.112 -2.943,-0.333c-0.841,-0.223 -1.54,-0.521 -2.094,-0.894c-0.555,-0.373 -0.971,-0.804 -1.248,-1.295c-0.278,-0.489 -0.416,-1.002 -0.416,-1.537c0,-0.757 0.239,-1.4 0.718,-1.929c0.479,-0.531 1.138,-0.953 1.974,-1.266c-0.433,-0.2 -0.778,-0.47 -1.036,-0.807c-0.257,-0.338 -0.385,-0.788 -0.385,-1.352c0,-0.221 0.04,-0.45 0.121,-0.688c0.08,-0.236 0.204,-0.47 0.37,-0.701c0.166,-0.232 0.37,-0.453 0.613,-0.665c0.242,-0.211 0.524,-0.397 0.847,-0.559c-0.757,-0.423 -1.349,-0.985 -1.778,-1.686c-0.428,-0.701 -0.643,-1.521 -0.643,-2.458c0,-0.747 0.144,-1.425 0.432,-2.035c0.287,-0.611 0.688,-1.129 1.202,-1.558c0.514,-0.429 1.128,-0.759 1.838,-0.99c0.711,-0.233 1.49,-0.349 2.337,-0.349" style="fill:#fff;fill-rule:nonzero;"/><path d="M198.676,343.724l0,-15.323l1.543,0c0.292,0 0.494,0.056 0.605,0.167c0.111,0.111 0.186,0.302 0.227,0.574l0.181,2.39c0.525,-1.069 1.173,-1.903 1.944,-2.503c0.771,-0.6 1.677,-0.901 2.716,-0.901c0.423,0 0.806,0.049 1.149,0.145c0.343,0.096 0.66,0.229 0.953,0.4l-0.348,2.012c-0.071,0.252 -0.227,0.379 -0.469,0.379c-0.142,0 -0.358,-0.049 -0.65,-0.145c-0.293,-0.095 -0.701,-0.143 -1.226,-0.143c-0.938,0 -1.722,0.272 -2.352,0.816c-0.63,0.545 -1.157,1.337 -1.581,2.376l0,9.756l-2.692,0Z" style="fill:#fff;fill-rule:nonzero;"/><path d="M213.803,342.075c0.474,0 0.908,-0.048 1.301,-0.145c0.393,-0.095 0.764,-0.23 1.112,-0.407c0.348,-0.177 0.68,-0.39 0.998,-0.643c0.318,-0.252 0.628,-0.539 0.93,-0.863l0,-3.161c-1.24,0 -2.294,0.079 -3.161,0.237c-0.868,0.157 -1.573,0.362 -2.118,0.616c-0.544,0.253 -0.94,0.552 -1.187,0.897c-0.248,0.345 -0.371,0.73 -0.371,1.156c0,0.406 0.065,0.756 0.197,1.05c0.131,0.294 0.307,0.535 0.529,0.723c0.222,0.187 0.484,0.324 0.787,0.41c0.302,0.087 0.63,0.13 0.983,0.13m6.988,1.648l-1.195,0c-0.262,0 -0.474,-0.04 -0.634,-0.121c-0.162,-0.08 -0.268,-0.252 -0.318,-0.513l-0.303,-1.422c-0.404,0.362 -0.796,0.688 -1.18,0.975c-0.383,0.287 -0.786,0.53 -1.21,0.726c-0.423,0.197 -0.875,0.346 -1.354,0.446c-0.479,0.101 -1.011,0.152 -1.596,0.152c-0.594,0 -1.152,-0.083 -1.671,-0.25c-0.52,-0.167 -0.971,-0.418 -1.354,-0.752c-0.383,-0.333 -0.688,-0.756 -0.915,-1.267c-0.227,-0.512 -0.341,-1.116 -0.341,-1.814c0,-0.608 0.167,-1.192 0.5,-1.753c0.333,-0.562 0.87,-1.061 1.61,-1.495c0.742,-0.436 1.712,-0.792 2.912,-1.071c1.201,-0.278 2.668,-0.417 4.402,-0.417l0,-1.203c0,-1.197 -0.254,-2.102 -0.763,-2.717c-0.51,-0.613 -1.264,-0.921 -2.262,-0.921c-0.655,0 -1.208,0.083 -1.656,0.25c-0.449,0.166 -0.837,0.353 -1.165,0.56c-0.328,0.206 -0.61,0.394 -0.847,0.56c-0.237,0.166 -0.471,0.249 -0.703,0.249c-0.182,0 -0.341,-0.047 -0.477,-0.144c-0.136,-0.096 -0.244,-0.214 -0.325,-0.355l-0.484,-0.862c0.847,-0.817 1.759,-1.427 2.738,-1.831c0.978,-0.403 2.062,-0.605 3.252,-0.605c0.857,0 1.619,0.141 2.284,0.425c0.665,0.282 1.226,0.674 1.679,1.179c0.454,0.504 0.797,1.114 1.029,1.83c0.232,0.716 0.347,1.502 0.347,2.36l0,9.801Z" style="fill:#fff;fill-rule:nonzero;"/><path d="M229.685,341.757c0.877,0 1.646,-0.201 2.306,-0.604c0.661,-0.404 1.269,-0.973 1.823,-1.709l0,-7.413c-0.494,-0.666 -1.036,-1.131 -1.626,-1.399c-0.59,-0.267 -1.243,-0.4 -1.959,-0.4c-1.432,0 -2.531,0.508 -3.297,1.527c-0.767,1.019 -1.15,2.471 -1.15,4.356c0,0.998 0.086,1.853 0.257,2.564c0.171,0.712 0.424,1.297 0.757,1.755c0.332,0.459 0.741,0.795 1.224,1.006c0.484,0.212 1.04,0.317 1.665,0.317m5.218,1.967c-0.383,0 -0.625,-0.187 -0.726,-0.56l-0.242,-1.86c-0.655,0.797 -1.404,1.434 -2.246,1.913c-0.842,0.479 -1.808,0.719 -2.897,0.719c-0.877,0 -1.674,-0.169 -2.39,-0.507c-0.716,-0.337 -1.326,-0.834 -1.83,-1.49c-0.504,-0.656 -0.892,-1.472 -1.165,-2.451c-0.272,-0.977 -0.408,-2.102 -0.408,-3.373c0,-1.129 0.151,-2.18 0.454,-3.153c0.302,-0.974 0.738,-1.818 1.308,-2.534c0.57,-0.716 1.263,-1.278 2.08,-1.687c0.817,-0.408 1.744,-0.613 2.783,-0.613c0.938,0 1.74,0.159 2.406,0.478c0.665,0.317 1.259,0.763 1.784,1.338l0,-8.501l2.692,0l0,22.281l-1.603,0Z" style="fill:#fff;fill-rule:nonzero;"/><path d="M246.399,330.14c-1.301,0 -2.325,0.376 -3.07,1.128c-0.747,0.751 -1.211,1.792 -1.392,3.123l8.334,0c0,-0.625 -0.085,-1.197 -0.257,-1.717c-0.172,-0.519 -0.424,-0.968 -0.757,-1.346c-0.332,-0.377 -0.738,-0.67 -1.217,-0.876c-0.479,-0.208 -1.026,-0.312 -1.641,-0.312m-0.061,-1.98c0.918,0 1.765,0.153 2.541,0.46c0.777,0.308 1.448,0.751 2.013,1.332c0.564,0.58 1.006,1.295 1.323,2.147c0.318,0.853 0.476,1.823 0.476,2.912c0,0.424 -0.044,0.706 -0.135,0.848c-0.091,0.14 -0.263,0.211 -0.515,0.211l-10.195,0c0.02,0.968 0.152,1.81 0.393,2.526c0.243,0.717 0.575,1.314 0.998,1.793c0.424,0.48 0.929,0.837 1.513,1.074c0.585,0.238 1.24,0.355 1.967,0.355c0.675,0 1.258,-0.078 1.747,-0.235c0.489,-0.155 0.91,-0.325 1.263,-0.505c0.353,-0.182 0.648,-0.351 0.885,-0.507c0.236,-0.157 0.441,-0.235 0.612,-0.235c0.222,0 0.393,0.086 0.514,0.257l0.757,0.984c-0.333,0.403 -0.731,0.753 -1.195,1.05c-0.464,0.298 -0.961,0.543 -1.49,0.735c-0.53,0.191 -1.077,0.335 -1.641,0.43c-0.565,0.096 -1.124,0.144 -1.68,0.144c-1.058,0 -2.033,-0.179 -2.926,-0.537c-0.893,-0.358 -1.664,-0.882 -2.314,-1.573c-0.651,-0.691 -1.158,-1.545 -1.52,-2.564c-0.364,-1.018 -0.545,-2.188 -0.545,-3.51c0,-1.068 0.163,-2.067 0.491,-2.995c0.328,-0.928 0.799,-1.731 1.414,-2.412c0.615,-0.681 1.367,-1.215 2.254,-1.603c0.888,-0.388 1.886,-0.582 2.995,-0.582" style="fill:#fff;fill-rule:nonzero;"/><path d="M267.333,321.806c0.918,0 1.775,0.136 2.572,0.408c0.796,0.273 1.485,0.668 2.065,1.188c0.58,0.519 1.036,1.152 1.369,1.898c0.332,0.746 0.499,1.594 0.499,2.541c0,0.808 -0.121,1.554 -0.363,2.238c-0.243,0.687 -0.57,1.345 -0.984,1.975c-0.413,0.631 -0.889,1.24 -1.429,1.83c-0.54,0.591 -1.112,1.193 -1.717,1.808l-5.702,5.839c0.403,-0.111 0.811,-0.199 1.225,-0.265c0.413,-0.065 0.812,-0.098 1.194,-0.098l7.261,0c0.293,0 0.525,0.086 0.697,0.257c0.17,0.172 0.256,0.393 0.256,0.665l0,1.634l-14.461,0l0,-0.922c0,-0.191 0.039,-0.389 0.114,-0.591c0.076,-0.201 0.199,-0.387 0.371,-0.559l6.942,-6.974c0.575,-0.584 1.1,-1.146 1.573,-1.686c0.474,-0.54 0.88,-1.082 1.218,-1.626c0.338,-0.544 0.598,-1.097 0.779,-1.657c0.182,-0.559 0.273,-1.156 0.273,-1.792c0,-0.635 -0.102,-1.192 -0.303,-1.672c-0.202,-0.478 -0.479,-0.874 -0.832,-1.187c-0.353,-0.313 -0.766,-0.547 -1.24,-0.703c-0.474,-0.156 -0.983,-0.235 -1.528,-0.235c-0.544,0 -1.049,0.082 -1.513,0.243c-0.464,0.161 -0.875,0.385 -1.232,0.672c-0.359,0.288 -0.661,0.628 -0.908,1.021c-0.248,0.394 -0.421,0.828 -0.522,1.302c-0.08,0.292 -0.201,0.504 -0.363,0.635c-0.162,0.131 -0.373,0.196 -0.635,0.196c-0.051,0 -0.104,-0.002 -0.158,-0.008c-0.057,-0.004 -0.12,-0.012 -0.19,-0.021l-1.407,-0.243c0.142,-0.988 0.414,-1.863 0.817,-2.625c0.404,-0.76 0.915,-1.398 1.535,-1.913c0.621,-0.514 1.331,-0.905 2.133,-1.173c0.802,-0.266 1.666,-0.4 2.594,-0.4" style="fill:#fff;fill-rule:nonzero;"/><path d="M288.873,332.894c0,-1.654 -0.139,-3.043 -0.416,-4.167c-0.277,-1.125 -0.65,-2.03 -1.119,-2.716c-0.47,-0.685 -1.012,-1.177 -1.626,-1.474c-0.615,-0.298 -1.256,-0.447 -1.922,-0.447c-0.665,0 -1.306,0.149 -1.92,0.447c-0.616,0.297 -1.155,0.789 -1.619,1.474c-0.464,0.686 -0.835,1.591 -1.111,2.716c-0.279,1.124 -0.417,2.513 -0.417,4.167c0,1.653 0.138,3.04 0.417,4.159c0.276,1.12 0.647,2.023 1.111,2.708c0.464,0.686 1.003,1.178 1.619,1.475c0.614,0.298 1.255,0.446 1.92,0.446c0.666,0 1.307,-0.148 1.922,-0.446c0.614,-0.297 1.156,-0.789 1.626,-1.475c0.469,-0.685 0.842,-1.588 1.119,-2.708c0.277,-1.119 0.416,-2.506 0.416,-4.159m2.798,0c0,1.896 -0.204,3.537 -0.612,4.924c-0.409,1.386 -0.966,2.533 -1.672,3.44c-0.705,0.908 -1.54,1.583 -2.503,2.028c-0.963,0.443 -1.994,0.665 -3.094,0.665c-1.108,0 -2.14,-0.222 -3.093,-0.665c-0.953,-0.445 -1.783,-1.12 -2.488,-2.028c-0.706,-0.907 -1.261,-2.054 -1.664,-3.44c-0.403,-1.387 -0.605,-3.028 -0.605,-4.924c0,-1.896 0.202,-3.54 0.605,-4.932c0.403,-1.391 0.958,-2.544 1.664,-3.456c0.705,-0.912 1.535,-1.591 2.488,-2.035c0.953,-0.442 1.985,-0.665 3.093,-0.665c1.1,0 2.131,0.223 3.094,0.665c0.963,0.444 1.798,1.123 2.503,2.035c0.706,0.912 1.263,2.065 1.672,3.456c0.408,1.392 0.612,3.036 0.612,4.932" style="fill:#fff;fill-rule:nonzero;"/><path d="M296.163,341.667l4.659,0l0,-14.779c0,-0.444 0.016,-0.893 0.046,-1.346l-3.873,3.312c-0.101,0.082 -0.201,0.139 -0.302,0.174c-0.101,0.035 -0.197,0.053 -0.288,0.053c-0.15,0 -0.287,-0.032 -0.408,-0.098c-0.121,-0.065 -0.212,-0.143 -0.272,-0.234l-0.847,-1.165l6.443,-5.582l2.195,0l0,19.665l4.264,0l0,2.057l-11.617,0l0,-2.057Z" style="fill:#fff;fill-rule:nonzero;"/><path d="M317.37,331.411c0.706,0 1.309,-0.108 1.808,-0.325c0.5,-0.217 0.905,-0.504 1.217,-0.862c0.313,-0.358 0.54,-0.769 0.681,-1.233c0.142,-0.464 0.212,-0.943 0.212,-1.437c0,-0.504 -0.083,-0.978 -0.25,-1.422c-0.166,-0.444 -0.413,-0.832 -0.74,-1.165c-0.329,-0.332 -0.737,-0.595 -1.226,-0.786c-0.489,-0.192 -1.056,-0.288 -1.702,-0.288c-0.646,0 -1.213,0.096 -1.701,0.288c-0.489,0.191 -0.899,0.454 -1.226,0.786c-0.328,0.333 -0.574,0.721 -0.741,1.165c-0.166,0.444 -0.25,0.918 -0.25,1.422c0,0.494 0.07,0.973 0.212,1.437c0.142,0.464 0.368,0.875 0.681,1.233c0.312,0.358 0.718,0.645 1.217,0.862c0.499,0.217 1.102,0.325 1.808,0.325m0,10.406c0.706,0 1.339,-0.097 1.898,-0.294c0.56,-0.197 1.034,-0.474 1.422,-0.832c0.388,-0.358 0.686,-0.787 0.893,-1.286c0.206,-0.499 0.309,-1.052 0.309,-1.656c0,-0.746 -0.123,-1.384 -0.37,-1.914c-0.247,-0.528 -0.58,-0.96 -0.998,-1.293c-0.419,-0.333 -0.9,-0.577 -1.444,-0.734c-0.545,-0.156 -1.115,-0.234 -1.71,-0.234c-0.595,0 -1.164,0.078 -1.709,0.234c-0.545,0.157 -1.026,0.401 -1.444,0.734c-0.419,0.333 -0.751,0.765 -0.999,1.293c-0.247,0.53 -0.37,1.168 -0.37,1.914c0,0.604 0.103,1.157 0.309,1.656c0.207,0.499 0.504,0.928 0.893,1.286c0.388,0.358 0.862,0.635 1.422,0.832c0.559,0.197 1.192,0.294 1.898,0.294m0,2.149c-1.079,0 -2.067,-0.144 -2.965,-0.431c-0.897,-0.287 -1.669,-0.698 -2.314,-1.233c-0.645,-0.535 -1.144,-1.183 -1.497,-1.944c-0.354,-0.761 -0.53,-1.616 -0.53,-2.564c0,-1.392 0.363,-2.538 1.089,-3.441c0.726,-0.902 1.765,-1.546 3.116,-1.929c-1.139,-0.423 -1.999,-1.056 -2.579,-1.899c-0.58,-0.841 -0.87,-1.846 -0.87,-3.017c0,-0.796 0.156,-1.542 0.47,-2.239c0.312,-0.695 0.756,-1.3 1.33,-1.815c0.575,-0.514 1.264,-0.917 2.065,-1.21c0.802,-0.292 1.697,-0.438 2.685,-0.438c0.979,0 1.87,0.146 2.678,0.438c0.806,0.293 1.497,0.696 2.072,1.21c0.575,0.515 1.019,1.12 1.331,1.815c0.313,0.697 0.469,1.443 0.469,2.239c0,1.171 -0.292,2.176 -0.877,3.017c-0.585,0.843 -1.443,1.476 -2.571,1.899c1.35,0.383 2.389,1.027 3.115,1.929c0.726,0.903 1.089,2.049 1.089,3.441c0,0.948 -0.179,1.803 -0.536,2.564c-0.359,0.761 -0.858,1.409 -1.499,1.944c-0.639,0.535 -1.409,0.946 -2.306,1.233c-0.898,0.287 -1.886,0.431 -2.965,0.431" style="fill:#fff;fill-rule:nonzero;"/></g></g></g></svg>